<?xml version="1.0" encoding="UTF-8"?><svg id="Layer_2" xmlns="http://www.w3.org/2000/svg" viewBox="0 0 10720.48 228"><defs><style>.cls-1{fill:#020202;}.cls-2{fill:#fff;}.cls-3{fill:#cad900;}</style></defs><g id="Layer_1-2"><rect class="cls-1" y="0" width="10720.48" height="228"/><path class="cls-2" d="m10373.31,146.88v-37.79h7.91l10.4,22.94,10.35-22.94h7.91v37.79h-5.73v-29.58l-12.58,26.88-12.63-27.05v29.74h-5.63Z"/><path class="cls-2" d="m10429.51,147.42c-2.43,0-4.63-.62-6.59-1.86-1.96-1.24-3.52-2.92-4.67-5.02-1.15-2.11-1.72-4.49-1.72-7.15s.54-5.04,1.62-7.13c1.08-2.09,2.56-3.75,4.44-4.99,1.88-1.24,3.96-1.86,6.26-1.86s4.46.61,6.26,1.84c1.81,1.22,3.23,2.88,4.26,4.97,1.03,2.09,1.55,4.48,1.55,7.18v1.46h-18.77c.2,1.48.65,2.78,1.34,3.91.69,1.13,1.59,2.02,2.69,2.67,1.1.65,2.29.97,3.58.97,1.18,0,2.31-.22,3.37-.67,1.07-.45,1.95-1.07,2.66-1.86l3.75,3.62c-1.56,1.37-3.14,2.37-4.74,3-1.61.63-3.37.94-5.3.94Zm-7.3-16.36h13.29c-.2-1.3-.62-2.45-1.24-3.46-.63-1.01-1.4-1.8-2.33-2.38-.93-.58-1.95-.86-3.07-.86s-2.14.28-3.07.84c-.93.56-1.7,1.34-2.31,2.35-.61,1.01-1.03,2.18-1.27,3.51Z"/><path class="cls-2" d="m10446.76,146.88v-27.05h5.73v4.43c.98-1.62,2.15-2.83,3.5-3.64,1.35-.81,2.86-1.21,4.51-1.21,1.76,0,3.3.4,4.62,1.21,1.32.81,2.36,1.94,3.12,3.37.76,1.44,1.14,3.13,1.14,5.07v17.81h-5.78v-16.09c0-1.98-.51-3.55-1.52-4.72-1.01-1.17-2.37-1.75-4.06-1.75-1.15,0-2.19.28-3.12.84-.93.56-1.73,1.38-2.41,2.46v19.27h-5.73Z"/><path class="cls-2" d="m10484.7,147.31c-1.76,0-3.3-.41-4.62-1.24-1.32-.83-2.36-1.96-3.12-3.4-.76-1.44-1.14-3.11-1.14-5.02v-17.81h5.78v16.03c0,2.02.5,3.61,1.5,4.78,1,1.17,2.36,1.75,4.08,1.75,1.15,0,2.19-.27,3.12-.81.93-.54,1.73-1.35,2.41-2.43v-19.33h5.73v27.05h-5.73v-4.37c-.98,1.58-2.15,2.78-3.5,3.59-1.35.81-2.86,1.21-4.51,1.21Z"/><path class="cls-2" d="m10603.94,149.17c-10.66,0-19.34-8.67-19.34-19.34s8.67-19.34,19.34-19.34,19.34,8.67,19.34,19.34-8.67,19.34-19.34,19.34Zm0-31.67c-6.8,0-12.34,5.53-12.34,12.34s5.53,12.34,12.34,12.34,12.34-5.53,12.34-12.34-5.53-12.34-12.34-12.34Z"/><path class="cls-2" d="m10626.83,156.23c-.9,0-1.79-.34-2.48-1.02l-11.69-11.69c-1.37-1.37-1.37-3.58,0-4.95,1.37-1.37,3.58-1.37,4.95,0l11.69,11.69c1.37,1.37,1.37,3.58,0,4.95-.68.68-1.58,1.02-2.48,1.02Z"/><rect class="cls-3" x="10548.76" y="212.31" width="125.86" height="15.69"/></g></svg>